<?xml version="1.0" encoding="utf-8"?>
<!-- Generator: Adobe Illustrator 22.1.0, SVG Export Plug-In . SVG Version: 6.00 Build 0)  -->
<svg version="1.1" id="Capa_1" xmlns="http://www.w3.org/2000/svg" xmlns:xlink="http://www.w3.org/1999/xlink" x="0px" y="0px"
	 viewBox="0 0 512 512" style="enable-background:new 0 0 512 512;" xml:space="preserve">
<style type="text/css">
	.st0{fill:#F8F8F8;}
</style>
<g>
	<g>
		<path class="st0" d="M367.9,56.3L237.7,186.5h193.2C425.3,137.3,403.4,91.8,367.9,56.3z"/>
	</g>
</g>
<g>
	<g>
		<path class="st0" d="M216.5,237.7v194.6c50.3-1,100.2-19,140.4-54.1L216.5,237.7z"/>
	</g>
</g>
<g>
	<g>
		<path class="st0" d="M424.2,0l-35.1,35.1c47.3,47.3,73.3,110.1,73.3,177s-26,129.7-73.3,177c-47.3,47.3-110.1,73.3-177,73.3
			c-66.9,0-129.7-26-177-73.3L0,424.2c117.1,117.1,307,117.1,424.2,0S541.3,117.1,424.2,0z"/>
	</g>
</g>
<g>
	<g>
		<path class="st0" d="M56.3,367.9c36.4,36.4,82.6,57.4,130.2,62.9V237.7L56.3,367.9z"/>
	</g>
</g>
<g>
	<g>
		<path class="st0" d="M237.7,216.5l140.4,140.4c34.1-39,53.2-88.2,54.2-140.4L237.7,216.5L237.7,216.5z"/>
	</g>
</g>
</svg>
