<svg id="Capa_1" data-name="Capa 1" xmlns="http://www.w3.org/2000/svg" viewBox="0 0 3498.54 499.33"><defs><style>.cls-1{fill:#f8f8f8;}</style></defs><title>lemon-slice-full</title><path class="cls-1" d="M358.06,52.79,231.34,179.51h188A212.46,212.46,0,0,0,358.06,52.79Z" transform="translate(0 2.17)"/><path class="cls-1" d="M210.71,229.34v189.4a213.6,213.6,0,0,0,136.65-52.65Z" transform="translate(0 2.17)"/><path class="cls-1" d="M412.86-2,378.7,32.16a243.67,243.67,0,0,1,0,344.54,243.67,243.67,0,0,1-344.54,0L0,410.86c114,114,298.79,114,412.86,0S526.83,112,412.86-2Z" transform="translate(0 2.17)"/><path class="cls-1" d="M54.79,356.06a213.37,213.37,0,0,0,126.72,61.22V229.34Z" transform="translate(0 2.17)"/><path class="cls-1" d="M231.34,208.71,368,345.36a212.72,212.72,0,0,0,52.75-136.65Z" transform="translate(0 2.17)"/><path class="cls-1" d="M1107.73,53.13,981,179.85h188A212.39,212.39,0,0,0,1107.73,53.13Z" transform="translate(0 2.17)"/><path class="cls-1" d="M960.38,229.68V419.07A213.58,213.58,0,0,0,1097,366.42Z" transform="translate(0 2.17)"/><path class="cls-1" d="M1162.52-1.67l-34.16,34.16a243.67,243.67,0,0,1,0,344.54,243.65,243.65,0,0,1-344.53,0l-34.16,34.16c114,114,298.79,114,412.85,0S1276.49,112.3,1162.52-1.67Z" transform="translate(0 2.17)"/><path class="cls-1" d="M804.46,356.4a213.39,213.39,0,0,0,126.72,61.21V229.68Z" transform="translate(0 2.17)"/><path class="cls-1" d="M981,209l136.65,136.65A212.8,212.8,0,0,0,1170.41,209Z" transform="translate(0 2.17)"/><path class="cls-1" d="M1859.06,53.29,1732.34,180h188A212.46,212.46,0,0,0,1859.06,53.29Z" transform="translate(0 2.17)"/><path class="cls-1" d="M1711.71,229.84v189.4a213.6,213.6,0,0,0,136.65-52.65Z" transform="translate(0 2.17)"/><path class="cls-1" d="M1913.86-1.5,1879.7,32.66a243.67,243.67,0,0,1,0,344.54,243.67,243.67,0,0,1-344.54,0L1501,411.36c114,114,298.79,114,412.86,0S2027.83,112.47,1913.86-1.5Z" transform="translate(0 2.17)"/><path class="cls-1" d="M1555.79,356.56a213.37,213.37,0,0,0,126.72,61.22V229.84Z" transform="translate(0 2.17)"/><path class="cls-1" d="M1732.34,209.21,1869,345.86a212.72,212.72,0,0,0,52.75-136.65Z" transform="translate(0 2.17)"/><path class="cls-1" d="M2608.73,53.63,2482,180.35h188A212.39,212.39,0,0,0,2608.73,53.63Z" transform="translate(0 2.17)"/><path class="cls-1" d="M2461.38,230.18V419.57A213.58,213.58,0,0,0,2598,366.92Z" transform="translate(0 2.17)"/><path class="cls-1" d="M2663.52-1.17,2629.36,33a243.67,243.67,0,0,1,0,344.54,243.65,243.65,0,0,1-344.53,0l-34.16,34.16c114,114,298.79,114,412.85,0S2777.49,112.8,2663.52-1.17Z" transform="translate(0 2.17)"/><path class="cls-1" d="M2305.46,356.9a213.39,213.39,0,0,0,126.72,61.21V230.18Z" transform="translate(0 2.17)"/><path class="cls-1" d="M2482,209.54l136.65,136.65a212.8,212.8,0,0,0,52.75-136.65Z" transform="translate(0 2.17)"/><path class="cls-1" d="M3210.88,229.18V418.57a213.58,213.58,0,0,0,136.64-52.65Z" transform="translate(0 2.17)"/><path class="cls-1" d="M3413-2.17,3378.86,32a243.67,243.67,0,0,1,0,344.54,243.65,243.65,0,0,1-344.53,0l-34.16,34.16c114,114,298.79,114,412.85,0S3527,111.8,3413-2.17Z" transform="translate(0 2.17)"/><path class="cls-1" d="M3055,355.9a213.39,213.39,0,0,0,126.72,61.21V229.18Z" transform="translate(0 2.17)"/></svg>